<svg xmlns="http://www.w3.org/2000/svg" viewBox="0 0 400 300" role="img" aria-labelledby="sudoku-cover-title">
  <title id="sudoku-cover-title">A Sudoku grid mid-solve: printed givens, one selected square and a square of pencil marks</title>
  <rect x="92" y="6" width="216" height="216" rx="6" fill="#f2eee5"/>
  <rect x="188" y="102" width="24" height="24" fill="#1d1c1a"/>
  <path d="M116 6V222M92 30H308M140 6V222M92 54H308M188 6V222M92 102H308M212 6V222M92 126H308M260 6V222M92 174H308M284 6V222M92 198H308" stroke="#1d1c1a" stroke-width="2.5" fill="none"/>
  <path d="M164 6V222M92 78H308M236 6V222M92 150H308" stroke="#1d1c1a" stroke-width="6" fill="none"/>
  <g fill="none" stroke="#1d1c1a" stroke-width="4" stroke-linecap="round" stroke-linejoin="round"><path d="M11 0.5H2.5L1.5 7.5C6 5 11 6.5 11 11C11 16.5 3 17 1 14" transform="translate(98 10)"/><path d="M1 0.5H11L5.5 6.5C12 6.5 12.5 16 6 16C3.5 16 1.5 15 1 13.5" transform="translate(122 10)"/><path d="M0.5 0.5H11.5L5 16" transform="translate(194 10)"/><path d="M10 0.5C4 0.5 1 5.5 1 11C1 14 3 16 6 16C9 16 11 14 11 11C11 8 9 6.5 6 6.5C3.5 6.5 1.5 8 1 10" transform="translate(98 34)"/><path d="M3 3.5L7 0V16" transform="translate(170 34)"/><path d="M11 5.5C11 8.5 9 10 6 10C3 10 1 8.5 1 5.5C1 2.5 3 0.5 6 0.5C9 0.5 11 2.5 11 5.5V9C11 13 9 16 4 16" transform="translate(194 34)"/><path d="M11 0.5H2.5L1.5 7.5C6 5 11 6.5 11 11C11 16.5 3 17 1 14" transform="translate(218 34)"/><path d="M11 5.5C11 8.5 9 10 6 10C3 10 1 8.5 1 5.5C1 2.5 3 0.5 6 0.5C9 0.5 11 2.5 11 5.5V9C11 13 9 16 4 16" transform="translate(122 58)"/><path d="M6 7.5C2.5 7.5 1.5 5.5 1.5 4C1.5 2 3.5 0.5 6 0.5C8.5 0.5 10.5 2 10.5 4C10.5 5.5 9.5 7.5 6 7.5C2.5 7.5 1 9.5 1 11.5C1 14 3 16 6 16C9 16 11 14 11 11.5C11 9.5 9.5 7.5 6 7.5Z" transform="translate(146 58)"/><path d="M10 0.5C4 0.5 1 5.5 1 11C1 14 3 16 6 16C9 16 11 14 11 11C11 8 9 6.5 6 6.5C3.5 6.5 1.5 8 1 10" transform="translate(266 58)"/><path d="M6 7.5C2.5 7.5 1.5 5.5 1.5 4C1.5 2 3.5 0.5 6 0.5C8.5 0.5 10.5 2 10.5 4C10.5 5.5 9.5 7.5 6 7.5C2.5 7.5 1 9.5 1 11.5C1 14 3 16 6 16C9 16 11 14 11 11.5C11 9.5 9.5 7.5 6 7.5Z" transform="translate(98 82)"/><path d="M10 0.5C4 0.5 1 5.5 1 11C1 14 3 16 6 16C9 16 11 14 11 11C11 8 9 6.5 6 6.5C3.5 6.5 1.5 8 1 10" transform="translate(194 82)"/><path d="M1 0.5H11L5.5 6.5C12 6.5 12.5 16 6 16C3.5 16 1.5 15 1 13.5" transform="translate(290 82)"/><path d="M9 16V0L0.5 11H12" transform="translate(98 106)"/><path d="M6 7.5C2.5 7.5 1.5 5.5 1.5 4C1.5 2 3.5 0.5 6 0.5C8.5 0.5 10.5 2 10.5 4C10.5 5.5 9.5 7.5 6 7.5C2.5 7.5 1 9.5 1 11.5C1 14 3 16 6 16C9 16 11 14 11 11.5C11 9.5 9.5 7.5 6 7.5Z" transform="translate(170 106)"/><path d="M1 0.5H11L5.5 6.5C12 6.5 12.5 16 6 16C3.5 16 1.5 15 1 13.5" transform="translate(218 106)"/><path d="M3 3.5L7 0V16" transform="translate(290 106)"/><path d="M0.5 0.5H11.5L5 16" transform="translate(98 130)"/><path d="M1 4C1 -0.5 11 -0.5 11 4C11 8 1 11 1 16H11" transform="translate(194 130)"/><path d="M10 0.5C4 0.5 1 5.5 1 11C1 14 3 16 6 16C9 16 11 14 11 11C11 8 9 6.5 6 6.5C3.5 6.5 1.5 8 1 10" transform="translate(290 130)"/><path d="M10 0.5C4 0.5 1 5.5 1 11C1 14 3 16 6 16C9 16 11 14 11 11C11 8 9 6.5 6 6.5C3.5 6.5 1.5 8 1 10" transform="translate(122 154)"/><path d="M1 4C1 -0.5 11 -0.5 11 4C11 8 1 11 1 16H11" transform="translate(242 154)"/><path d="M6 7.5C2.5 7.5 1.5 5.5 1.5 4C1.5 2 3.5 0.5 6 0.5C8.5 0.5 10.5 2 10.5 4C10.5 5.5 9.5 7.5 6 7.5C2.5 7.5 1 9.5 1 11.5C1 14 3 16 6 16C9 16 11 14 11 11.5C11 9.5 9.5 7.5 6 7.5Z" transform="translate(266 154)"/><path d="M9 16V0L0.5 11H12" transform="translate(170 178)"/><path d="M3 3.5L7 0V16" transform="translate(194 178)"/><path d="M11 5.5C11 8.5 9 10 6 10C3 10 1 8.5 1 5.5C1 2.5 3 0.5 6 0.5C9 0.5 11 2.5 11 5.5V9C11 13 9 16 4 16" transform="translate(218 178)"/><path d="M11 0.5H2.5L1.5 7.5C6 5 11 6.5 11 11C11 16.5 3 17 1 14" transform="translate(290 178)"/><path d="M6 7.5C2.5 7.5 1.5 5.5 1.5 4C1.5 2 3.5 0.5 6 0.5C8.5 0.5 10.5 2 10.5 4C10.5 5.5 9.5 7.5 6 7.5C2.5 7.5 1 9.5 1 11.5C1 14 3 16 6 16C9 16 11 14 11 11.5C11 9.5 9.5 7.5 6 7.5Z" transform="translate(194 202)"/><path d="M0.5 0.5H11.5L5 16" transform="translate(266 202)"/><path d="M11 5.5C11 8.5 9 10 6 10C3 10 1 8.5 1 5.5C1 2.5 3 0.5 6 0.5C9 0.5 11 2.5 11 5.5V9C11 13 9 16 4 16" transform="translate(290 202)"/></g>
  <path d="M11 0.5H2.5L1.5 7.5C6 5 11 6.5 11 11C11 16.5 3 17 1 14" transform="translate(194 106)" fill="none" stroke="#fbf9f4" stroke-width="4" stroke-linecap="round" stroke-linejoin="round"/>
  <g fill="#1d1c1a"><circle cx="193" cy="59" r="2.4"/><circle cx="207" cy="59" r="2.4"/><circle cx="193" cy="73" r="2.4"/></g>
  <rect x="92" y="6" width="216" height="216" rx="6" fill="none" stroke="#1d1c1a" stroke-width="6"/>
</svg>
